<svg width="428" height="82" viewBox="0 0 428 82" fill="none" xmlns="http://www.w3.org/2000/svg">
<g clip-path="url(#clip0_0_6)">
<path d="M43.664 35.8V47H41.072V42.408H35.984V47H33.392V35.8H35.984V40.216H41.072V35.8H43.664ZM49.6221 38.264C50.9555 38.264 51.9795 38.584 52.6941 39.224C53.4088 39.8533 53.7661 40.808 53.7661 42.088V47H51.4301V45.928C50.9608 46.728 50.0861 47.128 48.8061 47.128C48.1448 47.128 47.5688 47.016 47.0781 46.792C46.5981 46.568 46.2301 46.2587 45.9741 45.864C45.7181 45.4693 45.5901 45.0213 45.5901 44.52C45.5901 43.72 45.8888 43.0907 46.4861 42.632C47.0941 42.1733 48.0275 41.944 49.2861 41.944H51.2701C51.2701 41.4 51.1048 40.984 50.7741 40.696C50.4435 40.3973 49.9475 40.248 49.2861 40.248C48.8275 40.248 48.3741 40.3227 47.9261 40.472C47.4888 40.6107 47.1155 40.8027 46.8061 41.048L45.9101 39.304C46.3795 38.9733 46.9395 38.7173 47.5901 38.536C48.2515 38.3547 48.9288 38.264 49.6221 38.264ZM49.4301 45.448C49.8568 45.448 50.2355 45.352 50.5661 45.16C50.8968 44.9573 51.1315 44.664 51.2701 44.28V43.4H49.5581C48.5341 43.4 48.0221 43.736 48.0221 44.408C48.0221 44.728 48.1448 44.984 48.3901 45.176C48.6461 45.3573 48.9928 45.448 49.4301 45.448ZM60.0304 47.128C59.113 47.128 58.2864 46.9413 57.5504 46.568C56.825 46.184 56.2544 45.656 55.8384 44.984C55.433 44.312 55.2304 43.5493 55.2304 42.696C55.2304 41.8427 55.433 41.08 55.8384 40.408C56.2544 39.736 56.825 39.2133 57.5504 38.84C58.2864 38.456 59.113 38.264 60.0304 38.264C60.937 38.264 61.7264 38.456 62.3984 38.84C63.081 39.2133 63.577 39.752 63.8864 40.456L61.9504 41.496C61.5024 40.7067 60.857 40.312 60.0144 40.312C59.3637 40.312 58.825 40.5253 58.3984 40.952C57.9717 41.3787 57.7584 41.96 57.7584 42.696C57.7584 43.432 57.9717 44.0133 58.3984 44.44C58.825 44.8667 59.3637 45.08 60.0144 45.08C60.8677 45.08 61.513 44.6853 61.9504 43.896L63.8864 44.952C63.577 45.6347 63.081 46.168 62.3984 46.552C61.7264 46.936 60.937 47.128 60.0304 47.128ZM69.1951 43.736H67.8991V47H65.4031V38.392H67.8991V41.736H69.2431L71.5791 38.392H74.2351L71.2271 42.52L74.4431 47H71.4991L69.1951 43.736ZM79.4351 47.128C78.5285 47.128 77.7125 46.9413 76.9871 46.568C76.2725 46.184 75.7125 45.656 75.3071 44.984C74.9018 44.312 74.6991 43.5493 74.6991 42.696C74.6991 41.8427 74.9018 41.08 75.3071 40.408C75.7125 39.736 76.2725 39.2133 76.9871 38.84C77.7125 38.456 78.5285 38.264 79.4351 38.264C80.3418 38.264 81.1525 38.456 81.8671 38.84C82.5818 39.2133 83.1418 39.736 83.5471 40.408C83.9525 41.08 84.1551 41.8427 84.1551 42.696C84.1551 43.5493 83.9525 44.312 83.5471 44.984C83.1418 45.656 82.5818 46.184 81.8671 46.568C81.1525 46.9413 80.3418 47.128 79.4351 47.128ZM79.4351 45.08C80.0751 45.08 80.5978 44.8667 81.0031 44.44C81.4191 44.0027 81.6271 43.4213 81.6271 42.696C81.6271 41.9707 81.4191 41.3947 81.0031 40.968C80.5978 40.5307 80.0751 40.312 79.4351 40.312C78.7951 40.312 78.2671 40.5307 77.8511 40.968C77.4351 41.3947 77.2271 41.9707 77.2271 42.696C77.2271 43.4213 77.4351 44.0027 77.8511 44.44C78.2671 44.8667 78.7951 45.08 79.4351 45.08ZM94.0029 38.392V47H91.5069V40.44H88.7869L88.7069 41.96C88.6642 43.0907 88.5575 44.0293 88.3869 44.776C88.2162 45.5227 87.9389 46.1093 87.5549 46.536C87.1709 46.9627 86.6375 47.176 85.9549 47.176C85.5922 47.176 85.1602 47.112 84.6589 46.984L84.7869 44.936C84.9575 44.9573 85.0802 44.968 85.1549 44.968C85.5282 44.968 85.8055 44.8347 85.9869 44.568C86.1789 44.2907 86.3069 43.944 86.3709 43.528C86.4349 43.1013 86.4829 42.5413 86.5149 41.848L86.6429 38.392H94.0029ZM101.059 41.144C102.179 41.1547 103.038 41.4107 103.635 41.912C104.232 42.4027 104.531 43.1013 104.531 44.008C104.531 44.9573 104.195 45.6987 103.523 46.232C102.862 46.7547 101.928 47.016 100.723 47.016L96.4031 47V38.392H98.8831V41.144H101.059ZM100.499 45.24C100.979 45.2507 101.347 45.1493 101.603 44.936C101.859 44.7227 101.987 44.4027 101.987 43.976C101.987 43.56 101.859 43.256 101.603 43.064C101.358 42.872 100.99 42.7707 100.499 42.76L98.8831 42.744V45.24H100.499ZM109.883 43.736H108.587V47H106.091V38.392H108.587V41.736H109.931L112.267 38.392H114.923L111.915 42.52L115.131 47H112.187L109.883 43.736ZM120.123 47.128C119.216 47.128 118.4 46.9413 117.675 46.568C116.96 46.184 116.4 45.656 115.995 44.984C115.589 44.312 115.387 43.5493 115.387 42.696C115.387 41.8427 115.589 41.08 115.995 40.408C116.4 39.736 116.96 39.2133 117.675 38.84C118.4 38.456 119.216 38.264 120.123 38.264C121.029 38.264 121.84 38.456 122.555 38.84C123.269 39.2133 123.829 39.736 124.235 40.408C124.64 41.08 124.843 41.8427 124.843 42.696C124.843 43.5493 124.64 44.312 124.235 44.984C123.829 45.656 123.269 46.184 122.555 46.568C121.84 46.9413 121.029 47.128 120.123 47.128ZM120.123 45.08C120.763 45.08 121.285 44.8667 121.691 44.44C122.107 44.0027 122.315 43.4213 122.315 42.696C122.315 41.9707 122.107 41.3947 121.691 40.968C121.285 40.5307 120.763 40.312 120.123 40.312C119.483 40.312 118.955 40.5307 118.539 40.968C118.123 41.3947 117.915 41.9707 117.915 42.696C117.915 43.4213 118.123 44.0027 118.539 44.44C118.955 44.8667 119.483 45.08 120.123 45.08ZM137.667 42.504C138.68 42.8453 139.187 43.528 139.187 44.552C139.187 45.3307 138.893 45.9333 138.307 46.36C137.72 46.7867 136.845 47 135.683 47H131.091V38.392H135.491C136.568 38.392 137.411 38.5893 138.019 38.984C138.627 39.368 138.931 39.912 138.931 40.616C138.931 41.0427 138.819 41.4213 138.595 41.752C138.381 42.072 138.072 42.3227 137.667 42.504ZM133.379 41.928H135.267C136.141 41.928 136.579 41.6187 136.579 41C136.579 40.392 136.141 40.088 135.267 40.088H133.379V41.928ZM135.475 45.304C136.392 45.304 136.851 44.9893 136.851 44.36C136.851 44.0293 136.744 43.7893 136.531 43.64C136.317 43.48 135.981 43.4 135.523 43.4H133.379V45.304H135.475ZM145.572 41.144C146.692 41.1547 147.54 41.4053 148.116 41.896C148.692 42.3867 148.98 43.0907 148.98 44.008C148.98 44.968 148.654 45.7093 148.004 46.232C147.353 46.7547 146.43 47.016 145.236 47.016L141.044 47V38.392H143.524V41.144H145.572ZM149.908 38.392H152.388V47H149.908V38.392ZM145.012 45.24C145.492 45.2507 145.86 45.1493 146.116 44.936C146.372 44.7227 146.5 44.4027 146.5 43.976C146.5 43.56 146.372 43.256 146.116 43.064C145.87 42.872 145.502 42.7707 145.012 42.76L143.524 42.744V45.24H145.012ZM158.701 42.696L160.957 39.56H163.197L161.005 42.696L163.197 45.816H160.957L158.701 42.696ZM162.317 42.696L164.573 39.56H166.813L164.621 42.696L166.813 45.816H164.573L162.317 42.696ZM177.043 38.392L173.155 47.528C172.76 48.52 172.269 49.2187 171.683 49.624C171.107 50.0293 170.408 50.232 169.587 50.232C169.139 50.232 168.696 50.1627 168.259 50.024C167.821 49.8853 167.464 49.6933 167.187 49.448L168.099 47.672C168.291 47.8427 168.509 47.976 168.755 48.072C169.011 48.168 169.261 48.216 169.507 48.216C169.848 48.216 170.125 48.1307 170.339 47.96C170.552 47.8 170.744 47.528 170.915 47.144L170.947 47.064L167.219 38.392H169.795L172.211 44.232L174.643 38.392H177.043ZM186.807 38.392V47H184.311V40.44H180.727V47H178.247V38.392H186.807ZM194.272 38.264C195.072 38.264 195.797 38.4507 196.448 38.824C197.109 39.1867 197.627 39.704 198 40.376C198.373 41.0373 198.56 41.8107 198.56 42.696C198.56 43.5813 198.373 44.36 198 45.032C197.627 45.6933 197.109 46.2107 196.448 46.584C195.797 46.9467 195.072 47.128 194.272 47.128C193.173 47.128 192.309 46.7813 191.68 46.088V50.104H189.184V38.392H191.568V39.384C192.187 38.6373 193.088 38.264 194.272 38.264ZM193.84 45.08C194.48 45.08 195.003 44.8667 195.408 44.44C195.824 44.0027 196.032 43.4213 196.032 42.696C196.032 41.9707 195.824 41.3947 195.408 40.968C195.003 40.5307 194.48 40.312 193.84 40.312C193.2 40.312 192.672 40.5307 192.256 40.968C191.851 41.3947 191.648 41.9707 191.648 42.696C191.648 43.4213 191.851 44.0027 192.256 44.44C192.672 44.8667 193.2 45.08 193.84 45.08ZM203.513 38.264C204.846 38.264 205.87 38.584 206.585 39.224C207.299 39.8533 207.657 40.808 207.657 42.088V47H205.321V45.928C204.851 46.728 203.977 47.128 202.697 47.128C202.035 47.128 201.459 47.016 200.969 46.792C200.489 46.568 200.121 46.2587 199.865 45.864C199.609 45.4693 199.481 45.0213 199.481 44.52C199.481 43.72 199.779 43.0907 200.377 42.632C200.985 42.1733 201.918 41.944 203.177 41.944H205.161C205.161 41.4 204.995 40.984 204.665 40.696C204.334 40.3973 203.838 40.248 203.177 40.248C202.718 40.248 202.265 40.3227 201.817 40.472C201.379 40.6107 201.006 40.8027 200.697 41.048L199.801 39.304C200.27 38.9733 200.83 38.7173 201.481 38.536C202.142 38.3547 202.819 38.264 203.513 38.264ZM203.321 45.448C203.747 45.448 204.126 45.352 204.457 45.16C204.787 44.9573 205.022 44.664 205.161 44.28V43.4H203.449C202.425 43.4 201.913 43.736 201.913 44.408C201.913 44.728 202.035 44.984 202.281 45.176C202.537 45.3573 202.883 45.448 203.321 45.448ZM216.401 42.504C217.414 42.8453 217.921 43.528 217.921 44.552C217.921 45.3307 217.628 45.9333 217.041 46.36C216.454 46.7867 215.58 47 214.417 47H209.825V38.392H214.225C215.302 38.392 216.145 38.5893 216.753 38.984C217.361 39.368 217.665 39.912 217.665 40.616C217.665 41.0427 217.553 41.4213 217.329 41.752C217.116 42.072 216.806 42.3227 216.401 42.504ZM212.113 41.928H214.001C214.876 41.928 215.313 41.6187 215.313 41C215.313 40.392 214.876 40.088 214.001 40.088H212.113V41.928ZM214.209 45.304C215.126 45.304 215.585 44.9893 215.585 44.36C215.585 44.0293 215.478 43.7893 215.265 43.64C215.052 43.48 214.716 43.4 214.257 43.4H212.113V45.304H214.209ZM228.034 38.392V47H225.538V40.44H222.818L222.738 41.96C222.695 43.0907 222.589 44.0293 222.418 44.776C222.247 45.5227 221.97 46.1093 221.586 46.536C221.202 46.9627 220.669 47.176 219.986 47.176C219.623 47.176 219.191 47.112 218.69 46.984L218.818 44.936C218.989 44.9573 219.111 44.968 219.186 44.968C219.559 44.968 219.837 44.8347 220.018 44.568C220.21 44.2907 220.338 43.944 220.402 43.528C220.466 43.1013 220.514 42.5413 220.546 41.848L220.674 38.392H228.034ZM238.082 38.392V47H235.858V44.536H234.018L232.386 47H229.73L231.698 44.184C231.101 43.9493 230.642 43.6133 230.322 43.176C230.013 42.728 229.858 42.1893 229.858 41.56C229.858 40.5467 230.221 39.768 230.946 39.224C231.682 38.6693 232.69 38.392 233.97 38.392H238.082ZM234.018 40.424C233.485 40.424 233.08 40.52 232.802 40.712C232.536 40.904 232.402 41.2133 232.402 41.64C232.402 42.0667 232.53 42.3813 232.786 42.584C233.053 42.776 233.453 42.872 233.986 42.872H235.858V40.424H234.018ZM248.849 42.728C248.849 42.76 248.833 42.984 248.801 43.4H242.289C242.407 43.9333 242.684 44.3547 243.121 44.664C243.559 44.9733 244.103 45.128 244.753 45.128C245.201 45.128 245.596 45.064 245.937 44.936C246.289 44.7973 246.615 44.584 246.913 44.296L248.241 45.736C247.431 46.664 246.247 47.128 244.689 47.128C243.719 47.128 242.86 46.9413 242.113 46.568C241.367 46.184 240.791 45.656 240.385 44.984C239.98 44.312 239.777 43.5493 239.777 42.696C239.777 41.8533 239.975 41.096 240.369 40.424C240.775 39.7413 241.324 39.2133 242.017 38.84C242.721 38.456 243.505 38.264 244.369 38.264C245.212 38.264 245.975 38.4453 246.657 38.808C247.34 39.1707 247.873 39.6933 248.257 40.376C248.652 41.048 248.849 41.832 248.849 42.728ZM244.385 40.152C243.82 40.152 243.345 40.312 242.961 40.632C242.577 40.952 242.343 41.3893 242.257 41.944H246.497C246.412 41.4 246.177 40.968 245.793 40.648C245.409 40.3173 244.94 40.152 244.385 40.152ZM259.163 47V41.848L256.587 46.168H255.531L253.019 41.832V47H250.763V38.392H253.371L256.123 43.368L259.051 38.392H261.387L261.419 47H259.163ZM268.337 41.144C269.457 41.1547 270.305 41.4053 270.881 41.896C271.457 42.3867 271.745 43.0907 271.745 44.008C271.745 44.968 271.42 45.7093 270.769 46.232C270.119 46.7547 269.196 47.016 268.001 47.016L263.809 47V38.392H266.289V41.144H268.337ZM272.673 38.392H275.153V47H272.673V38.392ZM267.777 45.24C268.257 45.2507 268.625 45.1493 268.881 44.936C269.137 44.7227 269.265 44.4027 269.265 43.976C269.265 43.56 269.137 43.256 268.881 43.064C268.636 42.872 268.268 42.7707 267.777 42.76L266.289 42.744V45.24H267.777ZM276.759 45.816L278.951 42.696L276.759 39.56H278.999L281.255 42.696L278.999 45.816H276.759ZM280.375 45.816L282.567 42.696L280.375 39.56H282.615L284.871 42.696L282.615 45.816H280.375ZM288.285 43.112C288.285 42.5573 288.407 42.0987 288.653 41.736C288.909 41.3733 289.277 40.9733 289.757 40.536C290.109 40.216 290.365 39.9493 290.525 39.736C290.695 39.512 290.781 39.2613 290.781 38.984C290.781 38.5893 290.621 38.28 290.301 38.056C289.991 37.8213 289.575 37.704 289.053 37.704C288.551 37.704 288.103 37.8107 287.709 38.024C287.325 38.2267 286.999 38.5147 286.733 38.888L284.796 37.752C285.245 37.0693 285.847 36.5413 286.605 36.168C287.373 35.7947 288.279 35.608 289.325 35.608C290.551 35.608 291.533 35.8693 292.269 36.392C293.015 36.9147 293.389 37.64 293.389 38.568C293.389 39.0053 293.314 39.3893 293.165 39.72C293.026 40.0507 292.85 40.3333 292.637 40.568C292.434 40.792 292.167 41.0533 291.837 41.352C291.442 41.704 291.154 42.0027 290.973 42.248C290.791 42.4827 290.701 42.7707 290.701 43.112H288.285ZM289.501 47.128C289.063 47.128 288.695 46.9893 288.397 46.712C288.109 46.424 287.965 46.0773 287.965 45.672C287.965 45.2667 288.109 44.9307 288.397 44.664C288.685 44.3867 289.053 44.248 289.501 44.248C289.949 44.248 290.317 44.3867 290.605 44.664C290.893 44.9307 291.037 45.2667 291.037 45.672C291.037 46.0773 290.887 46.424 290.589 46.712C290.301 46.9893 289.938 47.128 289.501 47.128Z" fill="black"/>
<g filter="url(#filter0_d_0_6)">
<path d="M238 65.2C238 65.7872 237.767 66.3504 237.351 66.7657C236.936 67.181 236.373 67.4143 235.786 67.4143H54.2143C53.627 67.4143 53.0638 67.181 52.6485 66.7657C52.2333 66.3504 52 65.7872 52 65.2C52 64.6127 52.2333 64.0495 52.6485 63.6342C53.0638 63.219 53.627 62.9857 54.2143 62.9857H235.786C236.373 62.9857 236.936 63.219 237.351 63.6342C237.767 64.0495 238 64.6127 238 65.2Z" fill="#7E8898"/>
<path d="M186.629 65.2C186.629 65.7872 186.395 66.3504 185.98 66.7657C185.565 67.181 185.002 67.4143 184.414 67.4143H54.2143C53.627 67.4143 53.0638 67.181 52.6485 66.7657C52.2333 66.3504 52 65.7872 52 65.2C52 64.6127 52.2333 64.0495 52.6485 63.6342C53.0638 63.219 53.627 62.9857 54.2143 62.9857H184.414C185.002 62.9857 185.565 63.219 185.98 63.6342C186.395 64.0495 186.629 64.6127 186.629 65.2Z" fill="#FFE000"/>
<g filter="url(#filter1_d_0_6)">
<path d="M186.629 71.4C190.053 71.4 192.829 68.6241 192.829 65.2C192.829 61.7758 190.053 59 186.629 59C183.204 59 180.429 61.7758 180.429 65.2C180.429 68.6241 183.204 71.4 186.629 71.4Z" fill="white"/>
</g>
<path d="M119.955 26C131.001 26 139.955 17.0457 139.955 5.99996C139.955 -5.04574 131.001 -14 119.955 -14C108.909 -14 99.9551 -5.04574 99.9551 5.99996C99.9551 17.0457 108.909 26 119.955 26Z" fill="#FFE000"/>
<path d="M112.155 5.37489C111.989 5.5408 111.896 5.76556 111.896 5.99989C111.896 6.23422 111.989 6.45899 112.155 6.62489L121.515 15.9999C121.68 16.165 121.904 16.2577 122.137 16.2577C122.371 16.2577 122.594 16.165 122.76 15.9999C122.925 15.8348 123.017 15.6109 123.017 15.3774C123.017 15.1439 122.925 14.92 122.76 14.7549L114.025 5.99989L122.76 -2.73511C122.925 -2.90021 123.019 -3.12439 123.019 -3.35834C123.02 -3.59229 122.927 -3.81685 122.762 -3.98261C122.597 -4.14837 122.373 -4.24176 122.139 -4.24223C121.905 -4.2427 121.68 -4.15021 121.515 -3.98511L112.155 5.37489Z" fill="white"/>
<path d="M169.046 -14C158 -14 149.046 -5.04575 149.046 5.99995C149.046 17.0456 158 26 169.046 26C180.091 26 189.046 17.0456 189.046 5.99995C189.046 -5.04574 180.091 -14 169.046 -14Z" fill="#FFE000"/>
<path d="M176.846 6.62502C177.012 6.45912 177.105 6.23435 177.105 6.00002C177.105 5.76569 177.012 5.54093 176.846 5.37502L167.486 -3.99998C167.321 -4.16508 167.097 -4.25783 166.864 -4.25783C166.63 -4.25783 166.406 -4.16508 166.241 -3.99998C166.076 -3.83488 165.983 -3.61096 165.983 -3.37748C165.983 -3.144 166.076 -2.92008 166.241 -2.75498L174.976 6.00002L166.241 14.735C166.075 14.9001 165.982 15.1243 165.982 15.3583C165.981 15.5922 166.074 15.8168 166.239 15.9825C166.404 16.1483 166.628 16.2417 166.862 16.2421C167.096 16.2426 167.32 16.1501 167.486 15.985L176.846 6.62502Z" fill="white"/>
</g>
</g>
<defs>
<filter id="filter0_d_0_6" x="48" y="-17" width="194" height="93.4" filterUnits="userSpaceOnUse" color-interpolation-filters="sRGB">
<feFlood flood-opacity="0" result="BackgroundImageFix"/>
<feColorMatrix in="SourceAlpha" type="matrix" values="0 0 0 0 0 0 0 0 0 0 0 0 0 0 0 0 0 0 127 0" result="hardAlpha"/>
<feOffset dy="1"/>
<feGaussianBlur stdDeviation="2"/>
<feComposite in2="hardAlpha" operator="out"/>
<feColorMatrix type="matrix" values="0 0 0 0 0.0645834 0 0 0 0 0.645833 0 0 0 0 0.226256 0 0 0 1 0"/>
<feBlend mode="normal" in2="BackgroundImageFix" result="effect1_dropShadow_0_6"/>
<feBlend mode="normal" in="SourceGraphic" in2="effect1_dropShadow_0_6" result="shape"/>
</filter>
<filter id="filter1_d_0_6" x="177.429" y="57" width="18.4" height="18.4" filterUnits="userSpaceOnUse" color-interpolation-filters="sRGB">
<feFlood flood-opacity="0" result="BackgroundImageFix"/>
<feColorMatrix in="SourceAlpha" type="matrix" values="0 0 0 0 0 0 0 0 0 0 0 0 0 0 0 0 0 0 127 0" result="hardAlpha"/>
<feOffset dy="1"/>
<feGaussianBlur stdDeviation="1.5"/>
<feComposite in2="hardAlpha" operator="out"/>
<feColorMatrix type="matrix" values="0 0 0 0 0 0 0 0 0 0 0 0 0 0 0 0 0 0 0.25 0"/>
<feBlend mode="normal" in2="BackgroundImageFix" result="effect1_dropShadow_0_6"/>
<feBlend mode="normal" in="SourceGraphic" in2="effect1_dropShadow_0_6" result="shape"/>
</filter>
<clipPath id="clip0_0_6">
<path d="M0 26C0 11.6406 11.6406 0 26 0H402C416.359 0 428 11.6406 428 26V82H0V26Z" fill="white"/>
</clipPath>
</defs>
</svg>
