<svg width="24" height="24" viewBox="0 0 24 24" fill="none" xmlns="http://www.w3.org/2000/svg">
<path d="M17.2652 9.17828C17.6398 9.5841 18.2725 9.60941 18.6783 9.2348C19.0841 8.8602 19.1094 8.22754 18.7348 7.82172L12.7348 1.32172C12.5455 1.11664 12.2791 1 12 1C11.7209 1 11.4545 1.11664 11.2652 1.32172L5.26519 7.82172C4.89059 8.22754 4.91589 8.8602 5.32171 9.2348C5.72754 9.60941 6.36019 9.5841 6.7348 9.17828L11 4.55765L11 21C11 21.5523 11.4477 22 12 22C12.5523 22 13 21.5523 13 21L13 4.55765L17.2652 9.17828Z" fill="#18160B"/>
</svg>
