<svg width="175" height="40" viewBox="0 0 175 40" fill="none" xmlns="http://www.w3.org/2000/svg">
<path d="M89.6337 21.6511C89.4925 21.3975 89.225 21.2402 88.9347 21.2402H88.0966C87.6548 21.2402 87.2966 21.5984 87.2966 22.0402V26.2693C87.2966 26.7111 86.9384 27.0693 86.4966 27.0693H84.81C84.3682 27.0693 84.01 26.7111 84.01 26.2693V22.0402C84.01 21.5984 83.6518 21.2402 83.21 21.2402H82.3305C82.0402 21.2402 81.7727 21.3975 81.6315 21.6511L78.8438 26.6584C78.7026 26.912 78.4351 27.0693 78.1448 27.0693H76.131C75.5161 27.0693 75.1311 26.4045 75.4371 25.8711L78.8588 19.9076C79.002 19.6581 79.0002 19.3508 78.854 19.103L75.73 13.8064C75.4154 13.2731 75.7999 12.6 76.419 12.6H78.082C78.3727 12.6 78.6405 12.7577 78.7815 13.0119L81.5698 18.0378C81.7108 18.292 81.9786 18.4497 82.2693 18.4497H83.21C83.6518 18.4497 84.01 18.0916 84.01 17.6497V13.4C84.01 12.9582 84.3682 12.6 84.81 12.6H86.4966C86.9384 12.6 87.2966 12.9582 87.2966 13.4V17.6497C87.2966 18.0916 87.6548 18.4497 88.0966 18.4497H88.9767C89.2667 18.4497 89.5339 18.2929 89.6752 18.0397L92.4833 13.01C92.6247 12.7569 92.8919 12.6 93.1818 12.6H94.8498C95.4682 12.6 95.8528 13.2716 95.5398 13.8049L92.4299 19.1045C92.2849 19.3516 92.2831 19.6573 92.4251 19.9061L95.8322 25.8726C96.1368 26.4059 95.7517 27.0693 95.1375 27.0693H93.1205C92.8302 27.0693 92.5627 26.912 92.4215 26.6584L89.6337 21.6511Z" fill="white"/>
<path d="M110.108 12.6C110.713 12.6 111.099 13.246 110.812 13.779L105.287 24.0514C104.694 25.1538 103.978 25.9875 103.137 26.5525C102.31 27.1175 101.408 27.4 100.429 27.4C99.89 27.4 99.3368 27.3163 98.7697 27.1489C98.3695 27.0308 98.17 26.5973 98.2962 26.1995L98.6388 25.1188C98.7717 24.6997 99.2166 24.4755 99.6484 24.558C99.9002 24.6061 100.126 24.6302 100.326 24.6302C100.739 24.6302 101.111 24.5337 101.442 24.3408C101.773 24.1341 102.076 23.8171 102.352 23.3899C102.427 23.2891 102.437 23.1535 102.378 23.0425L97.4034 13.7785C97.1172 13.2455 97.5033 12.6 98.1082 12.6H99.8498C100.154 12.6 100.432 12.7726 100.567 13.0453L103.486 18.9455C103.777 19.535 104.616 19.5403 104.915 18.9546L107.937 13.0362C108.074 12.7685 108.349 12.6 108.65 12.6H110.108Z" fill="white"/>
<path d="M119.301 12.6C120.583 12.6 121.692 12.8136 122.629 13.2408C123.58 13.668 124.31 14.2743 124.82 15.0598C125.33 15.8453 125.585 16.7754 125.585 17.8503C125.585 18.9114 125.33 19.8415 124.82 20.6408C124.31 21.4263 123.58 22.0326 122.629 22.4598C121.692 22.8732 120.583 23.0799 119.301 23.0799H117.186C116.745 23.0799 116.386 23.4381 116.386 23.8799V26.2693C116.386 26.7111 116.028 27.0693 115.586 27.0693H113.838C113.396 27.0693 113.038 26.7111 113.038 26.2693V13.4C113.038 12.9582 113.396 12.6 113.838 12.6H119.301ZM119.115 20.3514C120.121 20.3514 120.886 20.1378 121.409 19.7106C121.933 19.2697 122.195 18.6495 122.195 17.8503C122.195 17.0373 121.933 16.4171 121.409 15.99C120.886 15.549 120.121 15.3285 119.115 15.3285H117.186C116.745 15.3285 116.386 15.6867 116.386 16.1285V19.5514C116.386 19.9932 116.745 20.3514 117.186 20.3514H119.115Z" fill="white"/>
<path d="M140.264 12.6C140.706 12.6 141.064 12.9582 141.064 13.4V26.2693C141.064 26.7111 140.706 27.0693 140.264 27.0693H138.516C138.074 27.0693 137.716 26.7111 137.716 26.2693V21.9369C137.716 21.4951 137.357 21.1369 136.916 21.1369H131.942C131.501 21.1369 131.142 21.495 131.142 21.9369V26.2693C131.142 26.7111 130.784 27.0693 130.342 27.0693H128.594C128.152 27.0693 127.794 26.7111 127.794 26.2693V13.4C127.794 12.9582 128.152 12.6 128.594 12.6H130.342C130.784 12.6 131.142 12.9582 131.142 13.4V17.505C131.142 17.9469 131.501 18.305 131.942 18.305H136.916C137.357 18.305 137.716 17.9469 137.716 17.505V13.4C137.716 12.9582 138.074 12.6 138.516 12.6H140.264Z" fill="white"/>
<path d="M154.692 24.4631C154.568 24.1639 154.276 23.9687 153.952 23.9687H148.304C147.98 23.9687 147.689 24.1639 147.565 24.4631L146.692 26.5749C146.568 26.8741 146.277 27.0693 145.953 27.0693H144.289C143.71 27.0693 143.322 26.4727 143.558 25.9436L149.294 13.0743C149.423 12.7858 149.709 12.6 150.025 12.6H152.294C152.61 12.6 152.896 12.7854 153.025 13.0735L158.779 25.9427C159.016 26.4719 158.628 27.0693 158.049 27.0693H156.304C155.98 27.0693 155.688 26.8741 155.564 26.5749L154.692 24.4631ZM152.535 21.4263C152.963 21.4263 153.253 20.9917 153.089 20.5967L151.878 17.6711C151.605 17.0126 150.672 17.0126 150.399 17.6711L149.188 20.5967C149.024 20.9917 149.314 21.4263 149.742 21.4263H152.535Z" fill="white"/>
<path d="M173.421 12.6C173.863 12.6 174.221 12.9582 174.221 13.4V26.2693C174.221 26.7111 173.863 27.0693 173.421 27.0693H171.714C171.272 27.0693 170.914 26.7111 170.914 26.2693V16.1285C170.914 15.6867 170.555 15.3285 170.114 15.3285H166.726C166.295 15.3285 165.941 15.6702 165.926 16.1011L165.849 18.3464C165.781 20.3996 165.615 22.067 165.353 23.3486C165.091 24.6164 164.651 25.5948 164.03 26.2838C163.424 26.959 162.57 27.2967 161.467 27.2967C161.178 27.2967 160.85 27.266 160.483 27.2048C160.095 27.14 159.835 26.7803 159.863 26.3878L159.976 24.8432C159.999 24.5332 160.309 24.3201 160.62 24.3201C161.419 24.3201 161.977 23.8516 162.294 22.9145C162.611 21.9637 162.811 20.4823 162.894 18.4704L163.073 13.3719C163.088 12.9413 163.442 12.6 163.873 12.6H173.421Z" fill="white"/>
<path d="M21.77 39.9652C21.3657 39.9883 20.9583 40 20.5481 40C9.19971 40 0 31.0457 0 20C0 9.62675 8.11368 1.098 18.501 0.0980098C18.9857 0.0333684 19.4802 0 19.9826 0H44.0886C44.2576 0 44.4256 0.0037758 44.5928 0.0112472C44.8237 0.00376881 45.0557 0 45.2885 0C56.6369 0 65.8366 8.9543 65.8366 20C65.8366 31.0457 56.6369 40 45.2885 40C44.8783 40 44.4709 39.9883 44.0666 39.9652H21.77Z" fill="#FFE000"/>
<path d="M11.0735 29.4953V26.079C11.0735 25.587 11.5895 25.2554 12.0525 25.4509C14.2118 26.3647 16.5803 26.8063 19.158 26.8063C22.6892 26.8063 24.7337 25.8568 24.7337 24.1839C24.7337 22.691 23.3866 21.9675 20.6451 21.9675H16.8019C16.409 21.9675 16.0917 21.6578 16.0917 21.2767V18.0455C16.0917 17.664 16.4095 17.3543 16.8019 17.3543H20.6451C22.8754 17.3543 23.9908 16.6768 23.9908 15.3651C23.9908 13.9178 22.4106 13.1943 19.2516 13.1943C16.8204 13.1943 14.6285 13.5608 12.6766 14.3207C12.2193 14.4986 11.725 14.1674 11.725 13.6871V10.428C11.725 10.0039 11.9942 9.63018 12.3977 9.47036C14.6563 8.57589 17.4445 8.12866 20.6914 8.12866C23.526 8.12866 25.8954 8.71638 27.8 9.89224C29.7051 11.0672 30.6806 12.5602 30.6806 14.3242C30.6806 16.6329 29.7197 18.2011 27.7983 18.9933C27.6509 19.0538 27.6575 19.2648 27.8071 19.3202C29.9898 20.13 31.6101 21.8837 31.6101 24.5435C31.6101 26.6701 30.542 28.4337 28.4052 29.8347C26.3134 31.1931 23.5256 31.8706 20.0876 31.8706C16.7485 31.8706 13.9862 31.383 11.7298 30.4439C11.3361 30.281 11.0735 29.9116 11.0735 29.4953Z" fill="#18160B"/>
<path d="M33.6215 30.5867V9.41345C33.6215 9.02809 33.9419 8.71661 34.337 8.71661H55.2541C55.6496 8.71661 55.9696 9.02809 55.9696 9.41345V30.5867C55.9696 30.9717 55.6491 31.2827 55.2541 31.2827H50.1335C49.738 31.2827 49.418 30.9708 49.418 30.5867V14.7502C49.418 14.3652 49.098 14.0533 48.7021 14.0533H40.8881C40.4926 14.0533 40.1726 14.3657 40.1726 14.7502V30.5867C40.1726 30.9717 39.8522 31.2827 39.4571 31.2827H34.3365C33.9419 31.2827 33.6215 30.9713 33.6215 30.5867Z" fill="#18160B"/>
</svg>
