<svg width="24" height="20" viewBox="0 0 24 20" fill="none" xmlns="http://www.w3.org/2000/svg">
<path d="M7.39125 9.792C8.32992 10.176 9.05525 10.7947 9.56725 11.648C10.1219 12.4587 10.3993 13.44 10.3993 14.592C10.3993 16.128 9.90858 17.3867 8.92725 18.368C7.94592 19.3493 6.72992 19.84 5.27925 19.84C3.74325 19.84 2.48458 19.3493 1.50325 18.368C0.521917 17.3867 0.03125 16.128 0.03125 14.592C0.03125 13.824 0.116583 13.0773 0.28725 12.352C0.500583 11.6267 0.884583 10.5387 1.43925 9.088L4.83125 0H9.95125L7.39125 9.792ZM20.9593 9.792C21.8979 10.176 22.6233 10.7947 23.1353 11.648C23.6899 12.4587 23.9673 13.44 23.9673 14.592C23.9673 16.128 23.4766 17.3867 22.4953 18.368C21.5139 19.3493 20.2979 19.84 18.8473 19.84C17.3113 19.84 16.0526 19.3493 15.0712 18.368C14.0899 17.3867 13.5992 16.128 13.5992 14.592C13.5992 13.824 13.6846 13.0773 13.8553 12.352C14.0686 11.6267 14.4526 10.5387 15.0073 9.088L18.3993 0H23.5193L20.9593 9.792Z" fill="#FFE000"/>
</svg>
