<svg width="30" height="30" viewBox="0 0 30 30" fill="none" xmlns="http://www.w3.org/2000/svg">
<rect x="0.458984" y="0.719727" width="28.5981" height="28.5981" rx="14.2991" fill="#FFE000"/>
<path d="M13.0774 19.6869L11.5887 21.1337C11.1983 21.524 10.6688 21.7434 10.1167 21.7434C9.5646 21.7434 9.03512 21.524 8.64473 21.1337C8.25434 20.7433 8.03502 20.2138 8.03502 19.6617C8.03502 19.1096 8.25434 18.5801 8.64473 18.1897L12.4634 14.3626C12.8382 13.9866 13.3433 13.769 13.874 13.7549C14.4047 13.7408 14.9206 13.9313 15.3148 14.2869L15.4158 14.371C15.5753 14.5272 15.7903 14.6136 16.0135 14.6112C16.2367 14.6089 16.4498 14.5179 16.6059 14.3584C16.7621 14.1989 16.8485 13.9839 16.8461 13.7607C16.8438 13.5375 16.7528 13.3244 16.5933 13.1682C16.5459 13.1069 16.4953 13.0479 16.4419 12.9916C15.7239 12.3669 14.7953 12.0385 13.8442 12.0728C12.8931 12.1072 11.9906 12.5018 11.3195 13.1766L7.45034 17.0037C6.79288 17.7194 6.43731 18.6613 6.45788 19.6329C6.47845 20.6044 6.87356 21.5305 7.56072 22.2177C8.24787 22.9048 9.17393 23.2999 10.1455 23.3205C11.1171 23.3411 12.059 22.9855 12.7746 22.328L14.2298 20.9065C14.3735 20.7498 14.4524 20.5445 14.4508 20.3318C14.4492 20.1192 14.3672 19.9151 14.2211 19.7605C14.0751 19.606 13.8759 19.5125 13.6638 19.4988C13.4516 19.4851 13.2421 19.5524 13.0774 19.6869ZM22.069 7.70935C21.3615 7.00618 20.4044 6.61151 19.4069 6.61151C18.4093 6.61151 17.4523 7.00618 16.7447 7.70935L15.2896 9.13085C15.1459 9.28759 15.0669 9.49293 15.0685 9.70556C15.0701 9.91818 15.1522 10.1223 15.2982 10.2769C15.4443 10.4314 15.6434 10.5249 15.8556 10.5386C16.0678 10.5522 16.2773 10.485 16.4419 10.3505L17.8971 8.90375C18.2875 8.51336 18.8169 8.29404 19.369 8.29404C19.9211 8.29404 20.4506 8.51336 20.841 8.90375C21.2314 9.29413 21.4507 9.82362 21.4507 10.3757C21.4507 10.9278 21.2314 11.4573 20.841 11.8477L17.0223 15.6748C16.6475 16.0508 16.1425 16.2684 15.6117 16.2825C15.081 16.2966 14.5651 16.1061 14.1709 15.7505L14.07 15.6664C13.9105 15.5102 13.6955 15.4238 13.4723 15.4262C13.2491 15.4285 13.0359 15.5195 12.8798 15.679C12.7236 15.8385 12.6372 16.0535 12.6396 16.2767C12.642 16.4999 12.7329 16.713 12.8924 16.8692C12.9535 16.9317 13.0181 16.9906 13.0859 17.0458C13.8047 17.6686 14.733 17.9958 15.6835 17.9615C16.634 17.9271 17.5362 17.5338 18.2083 16.8608L22.0354 13.0337C22.743 12.3305 23.1438 11.376 23.1501 10.3784C23.1564 9.38089 22.7677 8.42135 22.069 7.70935Z" fill="black"/>
</svg>
