<svg width="30" height="30" viewBox="0 0 30 30" fill="none" xmlns="http://www.w3.org/2000/svg">
<g clip-path="url(#clip0_628_3042)">
<rect x="0.439453" y="0.532715" width="28.5981" height="28.5981" rx="14.2991" fill="#FFE000"/>
<g clip-path="url(#clip1_628_3042)">
<path d="M14.7385 29.1308C22.6357 29.1308 29.0376 22.7289 29.0376 14.8318C29.0376 6.93462 22.6357 0.532707 14.7385 0.532707C6.84136 0.532707 0.439453 6.93462 0.439453 14.8318C0.439453 22.7289 6.84136 29.1308 14.7385 29.1308Z" fill="url(#paint0_linear_628_3042)"/>
<path fill-rule="evenodd" clip-rule="evenodd" d="M6.91127 14.6808C11.0797 12.8647 13.8594 11.6674 15.2502 11.0889C19.2212 9.43724 20.0463 9.15032 20.5841 9.14085C20.7024 9.13876 20.9669 9.16808 21.1382 9.30709C21.2829 9.42448 21.3227 9.58304 21.3417 9.69433C21.3608 9.80562 21.3845 10.0591 21.3656 10.2572C21.1504 12.5183 20.2193 18.0052 19.7456 20.5375C19.5452 21.6091 19.1505 21.9684 18.7684 22.0035C17.938 22.0799 17.3075 21.4548 16.5032 20.9276C15.2447 20.1026 14.5337 19.5891 13.3122 18.784C11.9004 17.8537 12.8156 17.3424 13.6201 16.5067C13.8307 16.288 17.4893 12.9602 17.5602 12.6583C17.569 12.6206 17.5772 12.4798 17.4936 12.4055C17.41 12.3312 17.2866 12.3566 17.1976 12.3768C17.0713 12.4055 15.0609 13.7343 11.1661 16.3634C10.5955 16.7552 10.0786 16.9462 9.61546 16.9362C9.10491 16.9251 8.12281 16.6475 7.39273 16.4102C6.49725 16.1191 5.78554 15.9652 5.84751 15.4708C5.87979 15.2133 6.23438 14.95 6.91127 14.6808Z" fill="white"/>
</g>
</g>
<defs>
<linearGradient id="paint0_linear_628_3042" x1="1430.35" y1="0.532707" x2="1430.35" y2="2839.14" gradientUnits="userSpaceOnUse">
<stop stop-color="#2AABEE"/>
<stop offset="1" stop-color="#229ED9"/>
</linearGradient>
<clipPath id="clip0_628_3042">
<rect x="0.439453" y="0.532715" width="28.5981" height="28.5981" rx="14.2991" fill="white"/>
</clipPath>
<clipPath id="clip1_628_3042">
<rect width="28.5981" height="28.5981" fill="white" transform="translate(0.439453 0.532711)"/>
</clipPath>
</defs>
</svg>
