<svg width="41" height="41" viewBox="0 0 41 41" fill="none" xmlns="http://www.w3.org/2000/svg">
<path d="M20.1504 40.4246C31.1961 40.4246 40.1504 31.4703 40.1504 20.4246C40.1504 9.37887 31.1961 0.424561 20.1504 0.424561C9.1047 0.424561 0.150391 9.37887 0.150391 20.4246C0.150391 31.4703 9.1047 40.4246 20.1504 40.4246Z" fill="url(#paint0_linear_626_1080)"/>
<path fill-rule="evenodd" clip-rule="evenodd" d="M9.20407 20.2135C15.0345 17.6733 18.9223 15.9986 20.8676 15.1895C26.4218 12.8793 27.576 12.478 28.3282 12.4647C28.4936 12.4618 28.8636 12.5028 29.1032 12.6973C29.3055 12.8614 29.3612 13.0832 29.3878 13.2389C29.4145 13.3946 29.4477 13.7492 29.4213 14.0262C29.1203 17.1887 27.8179 24.8632 27.1554 28.4052C26.875 29.904 26.323 30.4065 25.7886 30.4557C24.6271 30.5626 23.7452 29.6881 22.6203 28.9507C20.86 27.7969 19.8656 27.0786 18.1569 25.9526C16.1823 24.6514 17.4624 23.9362 18.5877 22.7673C18.8822 22.4615 23.9995 17.8069 24.0986 17.3846C24.111 17.3318 24.1225 17.135 24.0055 17.031C23.8886 16.9271 23.716 16.9626 23.5914 16.9909C23.4149 17.031 20.6028 18.8896 15.1553 22.5668C14.3571 23.1149 13.6342 23.382 12.9864 23.368C12.2723 23.3526 10.8986 22.9642 9.87748 22.6323C8.62498 22.2252 7.62952 22.0099 7.7162 21.3185C7.76135 20.9583 8.25731 20.59 9.20407 20.2135Z" fill="white"/>
<defs>
<linearGradient id="paint0_linear_626_1080" x1="20.1504" y1="0.424561" x2="20.1504" y2="40.1279" gradientUnits="userSpaceOnUse">
<stop stop-color="#2AABEE"/>
<stop offset="1" stop-color="#229ED9"/>
</linearGradient>
</defs>
</svg>
