<svg width="29" height="30" viewBox="0 0 29 30" fill="none" xmlns="http://www.w3.org/2000/svg">
<g clip-path="url(#clip0_628_3047)">
<g clip-path="url(#clip1_628_3047)">
<path d="M0.113281 14.2598C0.113281 7.78875 0.113281 4.55327 2.12357 2.54298C4.13386 0.532692 7.36934 0.532692 13.8404 0.532692H14.9843C21.4554 0.532692 24.6908 0.532692 26.7011 2.54298C28.7114 4.55327 28.7114 7.78875 28.7114 14.2598V15.4037C28.7114 21.8748 28.7114 25.1102 26.7011 27.1206C24.6908 29.1308 21.4554 29.1308 14.9843 29.1308H13.8404C7.36934 29.1308 4.13386 29.1308 2.12357 27.1206C0.113281 25.1102 0.113281 21.8748 0.113281 15.4037V14.2598Z" fill="#0077FF"/>
<path d="M15.332 21.1353C8.81401 21.1353 5.09631 16.6669 4.94141 9.23135H8.20636C8.3136 14.6888 10.7206 17.0005 12.6271 17.4771V9.23135H15.7015V13.9381C17.5842 13.7356 19.562 11.5907 20.2293 9.23135H23.3037C22.7913 12.1388 20.6464 14.2837 19.1212 15.1655C20.6464 15.8804 23.0893 17.7512 24.0187 21.1353H20.6345C19.9076 18.8713 18.0966 17.1197 15.7015 16.8814V21.1353H15.332Z" fill="white"/>
</g>
</g>
<defs>
<clipPath id="clip0_628_3047">
<rect x="0.113281" y="0.532715" width="28.5981" height="28.5981" rx="14.2991" fill="white"/>
</clipPath>
<clipPath id="clip1_628_3047">
<rect width="28.5981" height="28.5981" fill="white" transform="translate(0.113281 0.532703)"/>
</clipPath>
</defs>
</svg>
