<svg width="41" height="41" viewBox="0 0 41 41" fill="none" xmlns="http://www.w3.org/2000/svg">
<path d="M0.986328 19.6246C0.986328 10.5736 0.986328 6.04811 3.7981 3.23634C6.60988 0.424561 11.1353 0.424561 20.1863 0.424561H21.7863C30.8373 0.424561 35.3627 0.424561 38.1746 3.23634C40.9863 6.04811 40.9863 10.5736 40.9863 19.6246V21.2246C40.9863 30.2756 40.9863 34.801 38.1746 37.6128C35.3627 40.4246 30.8373 40.4246 21.7863 40.4246H20.1863C11.1353 40.4246 6.60988 40.4246 3.7981 37.6128C0.986328 34.801 0.986328 30.2756 0.986328 21.2246V19.6246Z" fill="#0077FF"/>
<path d="M22.2696 29.2413C13.1529 29.2413 7.95299 22.9913 7.73633 12.5913H12.303C12.453 20.2246 15.8196 23.458 18.4862 24.1246V12.5913H22.7864V19.1746C25.4197 18.8913 28.1861 15.8913 29.1194 12.5913H33.4195C32.7028 16.658 29.7028 19.658 27.5695 20.8913C29.7028 21.8913 33.1197 24.508 34.4197 29.2413H29.6862C28.6695 26.0746 26.1364 23.6246 22.7864 23.2913V29.2413H22.2696Z" fill="white"/>
</svg>
