<svg width="30" height="30" viewBox="0 0 30 30" fill="none" xmlns="http://www.w3.org/2000/svg">
<g clip-path="url(#clip0_628_3051)">
<path d="M15.0842 29.1308C22.9814 29.1308 29.3833 22.7289 29.3833 14.8318C29.3833 6.93462 22.9814 0.532711 15.0842 0.532711C7.18707 0.532711 0.785156 6.93462 0.785156 14.8318C0.785156 22.7289 7.18707 29.1308 15.0842 29.1308Z" fill="#25D366"/>
<path d="M23.946 14.7834C23.934 16.8044 23.232 18.7607 21.9563 20.3282C20.6806 21.8958 18.9077 22.9806 16.9313 23.403C15.1105 23.8094 13.2069 23.6112 11.5088 22.8385C11.2585 22.7205 10.9741 22.6964 10.7075 22.7707C9.42354 23.0865 8.14259 23.3866 6.85939 23.6942C6.83184 23.7002 6.80428 23.7024 6.77673 23.7076C6.37531 23.791 6.20774 23.6287 6.28966 23.2287C6.53493 22.0372 6.78144 20.8456 7.02919 19.654C7.07611 19.4268 7.11633 19.1975 7.16846 18.9711C7.19703 18.845 7.1796 18.713 7.11931 18.5987C6.80297 17.9458 6.57002 17.2557 6.42595 16.5447C6.23765 15.6041 6.2002 14.6395 6.31499 13.6871C6.47073 12.2943 6.96945 10.9619 7.76649 9.80922C9.15618 7.78948 11.0627 6.5398 13.472 6.07806C15.0711 5.77738 16.7223 5.92543 18.2424 6.50581C19.7626 7.08618 21.0923 8.0762 22.0842 9.3661C22.9696 10.5008 23.5539 11.8409 23.7829 13.2618C23.8663 13.7645 23.8961 14.2762 23.946 14.7834ZM8.61103 21.317C8.70859 21.3028 8.75402 21.2999 8.79796 21.2894C9.42205 21.1405 10.0529 21.0206 10.6673 20.8426C11.1417 20.7026 11.5408 20.7502 11.9884 20.9826C13.3982 21.7154 14.9063 21.9046 16.4614 21.5888C18.201 21.2416 19.7416 20.2413 20.7666 18.7935C21.7915 17.3456 22.2231 15.5602 21.9725 13.804C21.7394 12.1544 21.0177 10.7506 19.7859 9.64165C17.9397 7.98162 15.7732 7.42902 13.358 8.01886C9.70878 8.91255 7.44029 12.6571 8.29377 16.3198C8.46182 17.0068 8.72053 17.6685 9.06309 18.2874C9.14347 18.4246 9.17002 18.5867 9.13756 18.7424C9.01443 19.3149 8.89403 19.8878 8.77636 20.4613C8.72051 20.7286 8.6721 21.0012 8.61103 21.317Z" fill="white"/>
<path d="M17.3936 19.0493C16.6396 19.022 15.9014 18.8252 15.2339 18.4736C14.3715 18.0349 13.62 17.4443 12.9207 16.783C12.2758 16.1731 11.6911 15.5169 11.2458 14.7402C10.9088 14.1699 10.7052 13.5309 10.65 12.8709C10.6037 12.4324 10.7003 11.9906 10.9255 11.6115C11.1502 11.2485 11.4359 10.927 11.7701 10.6612C12.0933 10.4021 12.5379 10.4892 12.7159 10.8623C12.9803 11.4156 13.2164 11.9831 13.4606 12.5454C13.5022 12.6398 13.5172 12.7436 13.504 12.8459C13.4909 12.9481 13.4502 13.0448 13.3862 13.1256C13.2797 13.2783 13.1628 13.4235 13.0503 13.5724C12.8269 13.8703 12.809 14.1459 13.0324 14.4453C13.2497 14.7355 13.4858 15.0112 13.7392 15.2704C14.2493 15.8008 14.8165 16.2731 15.4305 16.6787C15.5547 16.7614 15.684 16.8361 15.8178 16.9022C16.1402 17.0586 16.4009 17.0161 16.6601 16.7704C16.7748 16.6616 16.8835 16.5469 16.9952 16.4345C17.0831 16.3312 17.2003 16.2571 17.3313 16.2218C17.4623 16.1866 17.6009 16.1919 17.7288 16.2371C18.262 16.3995 18.8019 16.535 19.3367 16.6966C19.6688 16.7949 19.8505 17.0481 19.8155 17.358C19.8 17.4662 19.7614 17.5698 19.7023 17.6618C19.5969 17.8262 19.4828 17.9848 19.3605 18.137C18.8638 18.7789 18.2039 19.0768 17.3936 19.0493Z" fill="white"/>
</g>
<defs>
<clipPath id="clip0_628_3051">
<rect width="28.5981" height="28.5981" fill="white" transform="translate(0.785156 0.532715)"/>
</clipPath>
</defs>
</svg>
