<svg width="186" height="27" viewBox="0 0 186 27" fill="none" xmlns="http://www.w3.org/2000/svg">
<path d="M13.4598 26.048C20.7273 26.048 26.6188 20.3137 26.6188 13.24C26.6188 6.16635 20.7273 0.432007 13.4598 0.432007C6.19228 0.432007 0.300781 6.16635 0.300781 13.24C0.300781 20.3137 6.19228 26.048 13.4598 26.048Z" fill="#FFE000"/>
<path d="M7.39453 19.3206V17.1328C7.39453 16.8178 7.72497 16.6054 8.02149 16.7306C9.4043 17.3158 10.9211 17.5986 12.5719 17.5986C14.8332 17.5986 16.1425 16.9906 16.1425 15.9192C16.1425 14.9632 15.2798 14.4999 13.5242 14.4999H11.063C10.8114 14.4999 10.6082 14.3015 10.6082 14.0575V11.9882C10.6082 11.7439 10.8117 11.5455 11.063 11.5455H13.5242C14.9525 11.5455 15.6668 11.1117 15.6668 10.2717C15.6668 9.34479 14.6549 8.88148 12.6318 8.88148C11.0749 8.88148 9.67114 9.11616 8.42118 9.60286C8.12834 9.71677 7.81175 9.50464 7.81175 9.19705V7.10993C7.81175 6.83838 7.98418 6.59902 8.24253 6.49667C9.68895 5.92386 11.4746 5.63745 13.5539 5.63745C15.3692 5.63745 16.8865 6.01383 18.1062 6.76685C19.3262 7.51932 19.9509 8.47539 19.9509 9.60506C19.9509 11.0836 19.3355 12.0878 18.1051 12.5951C18.0107 12.6339 18.0149 12.769 18.1107 12.8045C19.5085 13.3231 20.5462 14.4462 20.5462 16.1495C20.5462 17.5114 19.8622 18.6408 18.4938 19.538C17.1542 20.4079 15.3689 20.8418 13.1672 20.8418C11.0288 20.8418 9.25986 20.5295 7.81486 19.9281C7.56272 19.8238 7.39453 19.5872 7.39453 19.3206Z" fill="#18160B"/>
<path fill-rule="evenodd" clip-rule="evenodd" d="M111.63 19.6175V17.4525C111.63 17.3059 111.486 17.2093 111.339 17.2462C111.173 17.2883 110.981 17.3092 110.767 17.3092C110.082 17.3092 109.725 16.9323 109.725 16.2084V11.3139C109.725 9.54731 109.071 8.15682 107.762 7.1438C106.482 6.12995 104.757 5.6372 102.644 5.6372C100.729 5.6372 99.0907 5.92994 97.6904 6.53549C97.3577 6.67883 97.1395 6.99385 97.1395 7.34794V9.13049C97.1395 9.60399 97.6409 9.92836 98.085 9.73467C99.2126 9.24302 100.405 8.99678 101.632 8.99678C104.251 8.99678 105.56 9.8948 105.56 11.7194V12.1536C104.37 11.545 102.942 11.2556 101.276 11.2556C99.6682 11.2556 98.3001 11.6617 97.1397 12.4722C95.9797 13.283 95.4141 14.4707 95.4141 16.0051C95.4141 18.9305 97.6751 20.8424 100.889 20.8424C102.943 20.8424 104.604 20.2115 105.898 18.9792C105.952 18.927 106.039 18.9437 106.072 19.0103C106.655 20.1626 107.737 20.7257 109.369 20.7257C110.052 20.7257 110.62 20.6281 111.082 20.4327C111.416 20.291 111.63 19.9708 111.63 19.6175ZM105.095 14.4965C105.383 14.6398 105.561 14.932 105.561 15.2473V15.9043C105.561 16.1013 105.496 16.2963 105.361 16.4427C104.598 17.2711 103.536 17.6849 102.198 17.6849C100.652 17.6849 99.5506 17.0769 99.5506 15.8028C99.5506 14.615 100.681 13.9203 102.467 13.9203C103.474 13.9203 104.338 14.1179 105.095 14.4965Z" fill="#18160B"/>
<path fill-rule="evenodd" clip-rule="evenodd" d="M142.724 19.6175V17.4525C142.724 17.3059 142.58 17.2093 142.432 17.2462C142.268 17.2883 142.075 17.3092 141.861 17.3092C141.177 17.3092 140.819 16.9323 140.819 16.2084V11.3139C140.819 9.54731 140.165 8.15682 138.855 7.1438C137.576 6.12995 135.851 5.6372 133.738 5.6372C131.823 5.6372 130.185 5.92994 128.784 6.53549C128.453 6.67883 128.233 6.99385 128.233 7.34794V9.13049C128.233 9.60399 128.734 9.92836 129.179 9.73467C130.307 9.24302 131.499 8.99678 132.727 8.99678C135.346 8.99678 136.655 9.8948 136.655 11.7194V12.1536C135.464 11.545 134.036 11.2556 132.37 11.2556C130.763 11.2556 129.394 11.6617 128.233 12.4722C127.073 13.283 126.508 14.4707 126.508 16.0051C126.508 18.9305 128.769 20.8424 131.983 20.8424C134.038 20.8424 135.698 20.2115 136.992 18.9792C137.046 18.927 137.133 18.9437 137.166 19.0103C137.749 20.1626 138.83 20.7257 140.463 20.7257C141.145 20.7257 141.713 20.6281 142.176 20.4327C142.51 20.291 142.724 19.9708 142.724 19.6175ZM136.19 14.4965C136.477 14.6398 136.655 14.932 136.655 15.2473V15.9043C136.655 16.1013 136.591 16.2963 136.456 16.4427C135.692 17.2711 134.63 17.6849 133.293 17.6849C131.746 17.6849 130.645 17.0769 130.645 15.8028C130.645 14.615 131.776 13.9203 133.56 13.9203C134.568 13.9203 135.433 14.1179 136.19 14.4965Z" fill="#18160B"/>
<path fill-rule="evenodd" clip-rule="evenodd" d="M57.1759 13.2547C57.1759 11.0825 56.5213 9.28679 55.1826 7.83852C53.8732 6.36163 52.2075 5.6375 50.183 5.63777C48.1642 5.63777 46.5948 6.28129 45.4989 7.5433C45.4316 7.62117 45.3039 7.57852 45.3039 7.47782V6.68683C45.3039 6.31541 44.9952 6.0147 44.6139 6.0147H41.7996C41.4183 6.0147 41.1094 6.31514 41.1094 6.68683V25.5864C41.1094 25.9579 41.418 26.2589 41.7996 26.2589H44.6139C44.9949 26.2589 45.3039 25.9584 45.3039 25.5864V18.9966C45.3039 18.8948 45.4314 18.8521 45.5003 18.9275C46.6432 20.1956 48.1877 20.843 50.183 20.843C52.2075 20.843 53.8732 20.1186 55.1826 18.6706C56.5218 17.1929 57.1759 15.3974 57.1759 13.2547ZM45.3038 15.0361V11.4738C45.3038 11.4072 45.3207 11.3411 45.3544 11.2834C46.0542 10.083 47.3966 9.20011 48.9937 9.20011C50.1541 9.20011 51.1355 9.57703 51.88 10.3587C52.624 11.1406 53.0107 12.0961 53.0107 13.2547C53.0107 14.3843 52.624 15.3396 51.88 16.122C51.1355 16.904 50.1538 17.2806 48.9937 17.2806C47.3963 17.2806 46.054 16.425 45.3546 15.227C45.321 15.1679 45.3038 15.1024 45.3038 15.0361Z" fill="#18160B"/>
<path fill-rule="evenodd" clip-rule="evenodd" d="M168.942 13.2547C168.942 11.0825 168.287 9.28679 166.948 7.83852C165.639 6.36163 163.973 5.6375 161.949 5.63777C159.93 5.63777 158.36 6.28129 157.265 7.5433C157.198 7.62117 157.07 7.57852 157.07 7.47782V6.68683C157.07 6.31541 156.762 6.0147 156.38 6.0147H153.565C153.184 6.0147 152.875 6.31514 152.875 6.68683V25.5864C152.875 25.9579 153.184 26.2589 153.565 26.2589H156.38C156.761 26.2589 157.07 25.9584 157.07 25.5864V18.9966C157.07 18.8948 157.198 18.8521 157.266 18.9275C158.409 20.1956 159.953 20.843 161.949 20.843C163.973 20.843 165.639 20.1186 166.948 18.6706C168.287 17.1929 168.942 15.3974 168.942 13.2547ZM157.071 15.0361V11.4738C157.071 11.4072 157.087 11.3411 157.121 11.2834C157.821 10.083 159.163 9.20011 160.76 9.20011C161.92 9.20011 162.902 9.57703 163.647 10.3587C164.39 11.1406 164.777 12.0961 164.777 13.2547C164.777 14.3843 164.39 15.3396 163.647 16.122C162.902 16.904 161.92 17.2806 160.76 17.2806C159.163 17.2806 157.821 16.425 157.121 15.227C157.087 15.1679 157.071 15.1024 157.071 15.0361Z" fill="#18160B"/>
<path d="M59.9727 20.0198V6.46043C59.9727 6.21364 60.1779 6.01418 60.4309 6.01418H73.8262C74.0795 6.01418 74.2844 6.21364 74.2844 6.46043V20.0198C74.2844 20.2663 74.0792 20.4655 73.8262 20.4655H70.547C70.2937 20.4655 70.0888 20.2658 70.0888 20.0198V9.87807C70.0888 9.63155 69.8838 9.43181 69.6303 9.43181H64.6262C64.3729 9.43181 64.168 9.63183 64.168 9.87807V20.0198C64.168 20.2663 63.9628 20.4655 63.7098 20.4655H60.4306C60.1779 20.4655 59.9727 20.2661 59.9727 20.0198Z" fill="#18160B"/>
<path d="M84.4957 9.43182C84.2447 9.43182 84.0392 9.62606 84.0322 9.86983L83.9858 11.4587C83.897 13.4575 83.8069 14.7888 83.3012 16.5271C82.5877 18.9595 81.1588 20.4944 78.2132 20.5814C77.6942 20.5814 77.2696 20.5351 76.9505 20.4441C76.76 20.3888 76.6367 20.2097 76.6367 20.0152V17.539C76.6367 17.2738 76.8677 17.068 77.1387 17.0908C77.2535 17.1016 77.3739 17.1057 77.4989 17.1057C78.4814 17.1057 79.1064 16.5565 79.4331 15.2524C79.7904 13.8914 79.8789 12.6753 79.9092 10.2715L79.9897 6.45577C79.9948 6.21063 80.2003 6.01447 80.4527 6.01447H92.3598C92.6154 6.01447 92.8234 6.21641 92.8234 6.46567V20.0154C92.8234 20.2641 92.6156 20.4664 92.3598 20.4664H89.0916C88.8355 20.4664 88.628 20.2647 88.628 20.0154V9.88331C88.628 9.63432 88.4206 9.4321 88.1645 9.4321H84.4957V9.43182Z" fill="#18160B"/>
<path d="M116.657 20.0093V9.88851C116.657 9.63594 116.448 9.43152 116.188 9.43152H112.485C112.226 9.43152 112.016 9.22682 112.016 8.97508V6.4706C112.016 6.21803 112.226 6.01361 112.485 6.01361H125.084C125.343 6.01361 125.554 6.21803 125.554 6.4706V8.97508C125.554 9.2271 125.343 9.43152 125.084 9.43152H121.322C121.063 9.43152 120.852 9.63594 120.852 9.88851V20.0091C120.852 20.2611 120.643 20.4652 120.384 20.4652H117.127C116.868 20.4655 116.657 20.2614 116.657 20.0093Z" fill="#18160B"/>
<path d="M145.086 18.2362C145.086 16.846 146.217 15.7452 147.674 15.7452C149.103 15.7452 150.263 16.846 150.263 18.2362C150.263 19.6547 149.103 20.7839 147.674 20.7839C146.217 20.7836 145.086 19.655 145.086 18.2362Z" fill="#18160B"/>
<path d="M170.162 25.4863V22.9904C170.162 22.685 170.475 22.4594 170.769 22.5694C171.29 22.7664 171.849 22.8704 172.423 22.8704C173.894 22.8704 174.806 22.0269 175.646 20.1571C175.697 20.0424 175.696 19.9092 175.645 19.7961L169.614 6.63761C169.48 6.34543 169.7 6.01445 170.03 6.01445H173.384C173.666 6.01445 173.92 6.18118 174.026 6.43622L177.561 14.9861C177.638 15.174 177.913 15.1715 177.988 14.9811L181.33 6.44613C181.431 6.18613 181.688 6.01418 181.973 6.01418H185.248C185.573 6.01418 185.793 6.33635 185.668 6.62798L179.058 21.9718C177.749 24.9548 175.786 26.4319 173.137 26.4319C172.111 26.4319 171.232 26.288 170.536 26.0181C170.311 25.9315 170.162 25.7221 170.162 25.4863Z" fill="#18160B"/>
<path fill-rule="evenodd" clip-rule="evenodd" d="M37.6263 17.3089C37.8408 17.3089 38.0336 17.288 38.1984 17.2459C38.3445 17.2093 38.4895 17.3059 38.4898 17.4517V19.6167C38.4898 19.97 38.2747 20.2902 37.9414 20.4311C37.479 20.6272 36.9111 20.7249 36.2282 20.7249C34.5952 20.7249 33.5143 20.1617 32.9314 19.0095C32.8978 18.9429 32.8104 18.9267 32.757 18.9784C31.4632 20.2107 29.8023 20.8416 27.7481 20.8416C24.5345 20.8416 22.2734 18.9297 22.2734 16.0043C22.2734 14.4699 22.8388 13.2824 23.9988 12.4711C25.1598 11.6611 26.5279 11.255 28.1346 11.255C29.8009 11.255 31.2295 11.5447 32.4195 12.153V11.7189C32.4195 9.89424 31.1105 8.99622 28.4921 8.99622C27.6806 8.99622 26.7732 9.13104 26.0018 9.34481C25.9998 9.34442 25.9979 9.3439 25.996 9.34338C25.9939 9.3428 25.9918 9.34222 25.9894 9.34178C25.6601 8.34087 25.2104 7.39498 24.6532 6.51788C24.6541 6.51494 24.6547 6.51209 24.6553 6.50935C24.6557 6.50747 24.6561 6.50563 24.6566 6.50384C25.9382 5.95909 27.6899 5.63692 29.5032 5.63692C31.6156 5.63692 33.3419 6.12967 34.6206 7.14351C35.9302 8.15626 36.5849 9.54703 36.5849 11.3136V16.2081C36.5849 16.932 36.9422 17.3089 37.6263 17.3089ZM32.2197 16.4427C32.3546 16.2964 32.419 16.1013 32.419 15.9043L32.4187 15.2473C32.4187 14.9323 32.2412 14.6398 31.9535 14.4965C31.1968 14.1179 30.3315 13.9204 29.3241 13.9204C27.5396 13.9204 26.4086 14.6156 26.4086 15.8028C26.4086 17.0769 27.5094 17.6849 29.057 17.6849C30.394 17.6849 31.4562 17.2712 32.2197 16.4427Z" fill="#18160B"/>
</svg>
