<svg width="40" height="41" viewBox="0 0 40 41" fill="none" xmlns="http://www.w3.org/2000/svg">
<circle cx="20.1504" cy="20.4246" r="19" fill="white"/>
<path d="M39.106 19.4587C39.1095 19.4587 39.1121 19.4587 39.1155 19.4587C39.3582 19.4587 39.5895 19.3569 39.7538 19.1787C39.9208 18.9978 40.0034 18.7552 39.9816 18.51C39.1086 8.90736 31.506 1.30215 21.9025 0.427363C21.659 0.408232 21.4138 0.487363 21.2329 0.655189C21.0521 0.822146 20.9512 1.0578 20.9538 1.30388C21.1051 14.0656 22.7886 19.2804 39.106 19.4587ZM39.106 21.2221C22.7886 21.4004 21.106 26.6152 20.9547 39.3769C20.9521 39.623 21.0529 39.8587 21.2338 40.0256C21.3955 40.1743 21.6069 40.2569 21.8242 40.2569C21.8503 40.2569 21.8773 40.2561 21.9034 40.2535C31.5069 39.3787 39.1095 31.7743 39.9816 22.1708C40.0034 21.9256 39.9216 21.683 39.7538 21.5021C39.586 21.3213 39.3521 21.2317 39.106 21.2221ZM18.1747 0.431711C8.60164 1.33171 1.02338 8.93519 0.15468 18.5117C0.132941 18.7569 0.21468 18.9995 0.382506 19.1804C0.546854 19.3587 0.779028 19.4595 1.02077 19.4595C1.02425 19.4595 1.02772 19.4595 1.0312 19.4595C17.2947 19.2726 18.9738 14.0604 19.1269 1.30736C19.1295 1.06128 19.0277 0.824754 18.8469 0.657798C18.6642 0.490841 18.4199 0.409102 18.1747 0.431711ZM1.03033 21.2213C0.759897 21.1908 0.547723 21.3195 0.381636 21.5004C0.21468 21.6813 0.132071 21.9239 0.15381 22.1691C1.02251 31.7456 8.60164 39.3491 18.1747 40.2491C18.2016 40.2517 18.2295 40.2526 18.2564 40.2526C18.4738 40.2526 18.6842 40.1708 18.846 40.0221C19.0269 39.8552 19.1286 39.6187 19.126 39.3726C18.9729 26.6204 17.2947 21.4082 1.03033 21.2213Z" fill="black"/>
</svg>
