<svg width="57" height="35" viewBox="0 0 57 35" fill="none" xmlns="http://www.w3.org/2000/svg">
<path d="M19.4353 34.4142C19.0915 34.4339 18.7449 34.4438 18.396 34.4438C8.74316 34.4438 0.917969 26.8274 0.917969 17.432C0.917969 8.60862 7.81939 1.35414 16.6547 0.503563C17.067 0.448579 17.4877 0.420197 17.915 0.420197H38.4193C38.563 0.420197 38.706 0.423408 38.8482 0.429763C39.0446 0.423402 39.2419 0.420197 39.4399 0.420197C49.0928 0.420197 56.918 8.03664 56.918 17.432C56.918 26.8274 49.0928 34.4438 39.4399 34.4438C39.091 34.4438 38.7445 34.4339 38.4006 34.4142H19.4353Z" fill="#FFE000"/>
<path d="M10.3359 25.5086V22.6027C10.3359 22.1843 10.7748 21.9022 11.1687 22.0684C13.0053 22.8457 15.02 23.2214 17.2126 23.2214C20.2161 23.2214 21.9552 22.4138 21.9552 20.9908C21.9552 19.7209 20.8093 19.1055 18.4774 19.1055H15.2085C14.8743 19.1055 14.6044 18.8421 14.6044 18.5179V15.7695C14.6044 15.445 14.8747 15.1816 15.2085 15.1816H18.4774C20.3746 15.1816 21.3233 14.6053 21.3233 13.4896C21.3233 12.2585 19.9792 11.6431 17.2922 11.6431C15.2242 11.6431 13.3598 11.9548 11.6996 12.6013C11.3106 12.7526 10.8901 12.4708 10.8901 12.0623V9.29013C10.8901 8.92945 11.1191 8.61152 11.4623 8.47559C13.3834 7.71476 15.7551 7.33435 18.5169 7.33435C20.928 7.33435 22.9434 7.83426 24.5634 8.83444C26.1838 9.83388 27.0135 11.1038 27.0135 12.6042C27.0135 14.568 26.1962 15.9018 24.5619 16.5757C24.4365 16.6272 24.4421 16.8066 24.5694 16.8538C26.426 17.5426 27.8042 19.0343 27.8042 21.2967C27.8042 23.1055 26.8957 24.6056 25.0781 25.7973C23.2989 26.9528 20.9276 27.5291 18.0033 27.5291C15.163 27.5291 12.8135 27.1143 10.8942 26.3155C10.5593 26.177 10.3359 25.8627 10.3359 25.5086Z" fill="#18160B"/>
<path d="M29.5156 26.4371V8.42732C29.5156 8.09953 29.7882 7.83459 30.1242 7.83459H47.9161C48.2525 7.83459 48.5247 8.09953 48.5247 8.42732V26.4371C48.5247 26.7645 48.2522 27.0291 47.9161 27.0291H43.5606C43.2242 27.0291 42.952 26.7638 42.952 26.4371V12.9667C42.952 12.6393 42.6798 12.374 42.343 12.374H35.6966C35.3602 12.374 35.088 12.6396 35.088 12.9667V26.4371C35.088 26.7645 34.8154 27.0291 34.4794 27.0291H30.1238C29.7882 27.0291 29.5156 26.7642 29.5156 26.4371Z" fill="#18160B"/>
</svg>
